<svg width="1027" height="256" viewBox="0 0 1027 256" fill="none" xmlns="http://www.w3.org/2000/svg">
<g clip-path="url(#clip0)">
<rect width="1027" height="253.992" fill="black"/>
<path d="M298.969 167.252C318.842 167.252 332.592 155.167 333.881 137.872V137.012H314.921L314.813 137.603C313.471 145.606 307.509 150.924 299.022 150.924C288.173 150.924 281.566 141.632 281.566 126.378V126.27C281.566 111.124 288.173 101.885 298.969 101.885C307.455 101.885 313.686 107.579 314.813 115.689L314.867 116.173H333.827V115.206C332.699 98.072 318.466 85.5574 298.969 85.5574C275.712 85.5574 261.479 101.08 261.479 126.324V126.431C261.479 151.676 275.766 167.252 298.969 167.252ZM367.349 166.553C386.524 166.553 397.803 154.952 397.803 135.294V135.186C397.803 115.797 386.255 103.98 367.349 103.98C348.55 103.98 336.895 115.904 336.895 135.186V135.294C336.895 154.898 348.228 166.553 367.349 166.553ZM367.349 152.105C360.367 152.105 356.392 145.928 356.392 135.294V135.186C356.392 124.82 360.474 118.428 367.349 118.428C374.224 118.428 378.306 124.82 378.306 135.186V135.294C378.306 145.875 374.332 152.105 367.349 152.105ZM423.967 166.07C432.507 166.07 438.684 162.364 441.477 156.026H442.497V165.157H461.565V82.9792H442.497V114.991H441.477C438.63 108.385 432.185 104.464 423.967 104.464C408.874 104.464 400.119 115.743 400.119 135.186V135.294C400.119 154.63 409.143 166.07 423.967 166.07ZM431.003 150.548C423.913 150.548 419.455 144.801 419.455 135.294V135.186C419.455 125.787 423.967 119.986 431.003 119.986C438.039 119.986 442.658 125.733 442.658 135.24V135.347C442.658 144.854 438.147 150.548 431.003 150.548ZM497.504 166.553C516.679 166.553 523.983 155.328 525.702 148.184L525.863 147.54L508.461 147.594L508.353 147.808C507.494 149.366 504.218 153.018 497.88 153.018C490.575 153.018 486.171 148.077 486.01 139.537H526.239V134.058C526.239 115.797 514.799 103.98 496.805 103.98C478.759 103.98 467.318 115.958 467.318 135.24V135.294C467.318 154.683 478.759 166.553 497.504 166.553ZM497.235 117.515C503.143 117.515 507.333 121.329 508.246 128.472H486.224C487.137 121.436 491.381 117.515 497.235 117.515ZM562.124 167.252C582.535 167.252 594.727 157.154 594.727 141.309V141.256C594.727 128.741 587.207 122.135 570.718 118.912L562.715 117.354C554.336 115.689 550.791 113.272 550.791 108.868V108.814C550.791 104.195 554.981 101.026 562.071 101.026C569.214 101.026 574.048 104.249 574.854 109.083L574.961 109.727H593.223L593.169 109.083C591.988 95.3865 581.407 85.5574 561.963 85.5574C544.131 85.5574 531.241 95.3328 531.187 110.533V110.587C531.187 122.672 538.277 130.406 554.659 133.575L562.662 135.133C571.739 136.905 575.176 138.946 575.176 143.297V143.35C575.176 148.292 570.127 151.783 562.447 151.783C554.497 151.783 549.18 148.345 548.643 143.565L548.589 143.082H529.79L529.844 144.049C530.65 158.443 542.788 167.252 562.124 167.252ZM616.271 166.07C623.898 166.07 630.29 162.847 632.922 157.745H633.942V165.157H652.634V124.39C652.634 111.5 643.234 103.98 626.745 103.98C610.578 103.98 600.266 111.231 599.191 122.242L599.138 122.886H616.379L616.486 122.618C617.614 119.61 620.676 117.945 625.671 117.945C630.935 117.945 633.942 120.362 633.942 124.39V129.063L620.891 129.815C605.476 130.782 596.989 137.066 596.989 147.916V148.023C596.989 158.927 604.831 166.07 616.271 166.07ZM615.305 146.68V146.573C615.305 143.028 618.259 140.772 623.898 140.396L633.942 139.752V143.673C633.942 148.829 629.27 152.803 623.254 152.803C618.474 152.803 615.305 150.44 615.305 146.68ZM660.482 165.157H679.496V130.997C679.496 124.122 683.148 119.449 689.325 119.449C695.77 119.449 698.724 123.531 698.724 130.782V165.157H717.738V126.539C717.738 112.198 710.809 103.98 697.543 103.98C689.11 103.98 683.094 108.17 680.516 114.722H679.496V105.377H660.482V165.157ZM746.319 166.07C754.859 166.07 761.035 162.364 763.828 156.026H764.849V165.157H783.916V82.9792H764.849V114.991H763.828C760.982 108.385 754.536 104.464 746.319 104.464C731.226 104.464 722.471 115.743 722.471 135.186V135.294C722.471 154.63 731.494 166.07 746.319 166.07ZM753.355 150.548C746.265 150.548 741.807 144.801 741.807 135.294V135.186C741.807 125.787 746.319 119.986 753.355 119.986C760.391 119.986 765.01 125.733 765.01 135.24V135.347C765.01 144.854 760.498 150.548 753.355 150.548ZM830.705 166.07C845.529 166.07 854.553 154.63 854.553 135.294V135.186C854.553 115.743 845.851 104.464 830.705 104.464C822.487 104.464 816.096 108.385 813.195 114.991H812.175V82.9792H793.161V165.157H812.175V156.026H813.195C815.988 162.364 822.219 166.07 830.705 166.07ZM823.669 150.548C816.525 150.548 812.013 144.854 812.013 135.347V135.24C812.013 125.733 816.633 119.986 823.669 119.986C830.705 119.986 835.27 125.787 835.27 135.186V135.294C835.27 144.801 830.759 150.548 823.669 150.548ZM887.323 166.553C906.497 166.553 917.777 154.952 917.777 135.294V135.186C917.777 115.797 906.229 103.98 887.323 103.98C868.524 103.98 856.869 115.904 856.869 135.186V135.294C856.869 154.898 868.202 166.553 887.323 166.553ZM887.323 152.105C880.34 152.105 876.366 145.928 876.366 135.294V135.186C876.366 124.82 880.448 118.428 887.323 118.428C894.198 118.428 898.28 124.82 898.28 135.186V135.294C898.28 145.875 894.305 152.105 887.323 152.105ZM915.312 165.157H935.078L944.639 146.842H945.713L955.327 165.157H976.06L957.959 134.971L976.006 105.377H955.435L946.626 124.014H945.605L936.851 105.377H915.205L933.198 135.777L915.312 165.157Z" fill="white"/>
<path d="M58.8682 80.6471L123.538 45.3123C127.115 43.3575 131.453 43.4077 134.984 45.4446L197.32 81.4004C200.216 83.0706 202 86.1591 202 89.5019V165.956C202 169.306 200.208 172.401 197.302 174.068L132.698 211.14C129.792 212.807 126.216 212.793 123.324 211.103L58.6337 173.298C55.764 171.621 54 168.547 54 165.223V88.8544C54 85.4343 55.8669 82.287 58.8682 80.6471Z" fill="#151515"/>
<path fill-rule="evenodd" clip-rule="evenodd" d="M127.596 129.814V204.108C128.88 204.108 129.723 203.827 130.876 203.164L189.913 169.17C192.243 167.824 193.194 165.74 193.194 163.032V94.1001C193.194 92.742 192.91 91.9295 192.255 90.7952L129.485 126.534C128.317 127.207 127.596 128.458 127.596 129.814ZM160.394 172.475C160.394 174.363 159.692 175.308 158.052 176.252L138.373 187.583C136.967 188.527 135.093 188.055 135.093 186.167V135.648C135.093 134.296 136.273 132.545 137.435 131.871L182.416 105.904C183.666 105.179 184.759 106.339 184.759 107.792V134.704C184.759 136.099 184.106 137.353 182.884 138.009L162.737 148.868C161.515 149.524 160.394 150.778 160.394 152.173V172.475Z" fill="#999999"/>
<path fill-rule="evenodd" clip-rule="evenodd" d="M62 163.031V94.0991C62 91.3882 63.4126 88.8342 65.7483 87.4892L122.911 54.9118C124.142 54.2541 126.19 53.9675 127.596 53.9675C129.002 53.9675 131.17 54.3183 132.282 54.9118L188.976 87.4892C190.097 88.157 191.621 89.6954 192.255 90.7942L129.47 126.677C128.302 127.349 127.596 128.626 127.596 129.981V204.107C126.312 204.107 125 203.826 123.848 203.163L66.2169 169.641C63.8811 168.296 62 165.742 62 163.031ZM70.4338 107.791V134.703C70.4338 136.591 70.9024 137.536 72.7765 138.48L92.4554 149.811C94.3295 150.756 94.7981 152.172 94.7981 153.588V172.474C94.7981 174.362 95.2667 175.306 97.1408 176.251L116.82 187.582C118.694 188.526 120.1 188.054 120.1 186.165V135.647C120.1 134.231 119.631 132.814 117.757 131.87L73.7136 106.375C72.308 105.43 70.4338 105.902 70.4338 107.791ZM147.275 75.6858L129.939 85.6006C128.533 86.5449 126.659 86.5449 125.254 85.6006L107.917 75.6858C106.776 75.0358 105.312 75.0392 104.169 75.6858L82.616 87.9613C80.7418 88.9056 80.7418 90.7942 82.616 91.7384L125.722 116.762C126.875 117.427 128.317 117.427 129.47 116.762L172.576 91.7384C173.982 90.7942 174.451 88.9056 172.576 87.9613L151.024 75.6858C149.88 75.0392 148.416 75.0358 147.275 75.6858Z" fill="#F2F2F2"/>
</g>
<defs>
<clipPath id="clip0">
<rect width="1027" height="253.992" fill="white"/>
</clipPath>
</defs>
</svg>
